<svg width="17" height="20" viewBox="0 0 17 20" fill="none" xmlns="http://www.w3.org/2000/svg">
<path d="M6.56615 15.5687C6.01615 15.5687 5.54254 15.3778 5.14531 14.9958C4.76337 14.5986 4.5724 14.125 4.5724 13.575V2.68958C4.5724 2.13958 4.76337 1.67361 5.14531 1.29167C5.54254 0.894444 6.01615 0.695832 6.56615 0.695832H14.9766C15.5266 0.695832 15.9925 0.894444 16.3745 1.29167C16.7717 1.67361 16.9703 2.13958 16.9703 2.68958V13.575C16.9703 14.125 16.7717 14.5986 16.3745 14.9958C15.9925 15.3778 15.5266 15.5687 14.9766 15.5687H6.56615ZM6.56615 13.575H14.9766V2.68958H6.56615V13.575ZM2.83073 19.3042C2.28073 19.3042 1.80712 19.1132 1.4099 18.7312C1.02795 18.334 0.836979 17.8604 0.836979 17.3104V4.43125H2.83073V17.3104H13.2349V19.3042H2.83073ZM6.56615 13.575V2.68958V13.575Z" fill="#3E4784"/>
</svg>
