<svg width="71" height="24" viewBox="0 0 71 24" fill="none" xmlns="http://www.w3.org/2000/svg">
<path opacity="0.5" d="M24 24C24 20.8483 23.3792 17.7274 22.1731 14.8156C20.967 11.9038 19.1992 9.25804 16.9706 7.02944C14.742 4.80083 12.0962 3.033 9.1844 1.82689C6.27259 0.620778 3.15173 -1.37766e-07 0 0L1.04907e-06 24H24Z" fill="#6941C6"/>
<path opacity="0.5" d="M24 0C24 3.15172 23.3792 6.27259 22.1731 9.1844C20.967 12.0962 19.1992 14.742 16.9706 16.9706C14.742 19.1992 12.0962 20.967 9.1844 22.1731C6.27259 23.3792 3.15172 24 0 24L1.04907e-06 0H24Z" fill="#6941C6"/>
<path d="M31.7088 17.5V6.46866H34.0411V11.3326H34.1865L38.1563 6.46866H40.9518L36.8582 11.408L41.0003 17.5H38.2102L35.1884 12.9647L34.0411 14.3651V17.5H31.7088ZM41.8631 17.5V6.46866H44.1954V15.5771H48.9247V17.5H41.8631ZM50.1659 17.5V6.46866H57.5991V8.3916H52.4982V11.0202H57.2167V12.9431H52.4982V15.5771H57.6206V17.5H50.1659ZM69.2872 11.9843C69.2872 13.1873 69.0592 14.2107 68.6031 15.0546C68.1507 15.8984 67.533 16.543 66.7502 16.9883C65.971 17.43 65.0948 17.6508 64.1216 17.6508C63.1413 17.6508 62.2615 17.4282 61.4823 16.9829C60.7031 16.5376 60.0872 15.8931 59.6348 15.0492C59.1823 14.2053 58.9561 13.1837 58.9561 11.9843C58.9561 10.7814 59.1823 9.75795 59.6348 8.91408C60.0872 8.07021 60.7031 7.42744 61.4823 6.98575C62.2615 6.54048 63.1413 6.31784 64.1216 6.31784C65.0948 6.31784 65.971 6.54048 66.7502 6.98575C67.533 7.42744 68.1507 8.07021 68.6031 8.91408C69.0592 9.75795 69.2872 10.7814 69.2872 11.9843ZM66.9226 11.9843C66.9226 11.2051 66.8059 10.548 66.5724 10.0129C66.3426 9.47786 66.0176 9.07209 65.5975 8.79558C65.1774 8.51908 64.6854 8.38083 64.1216 8.38083C63.5579 8.38083 63.0659 8.51908 62.6458 8.79558C62.2256 9.07209 61.8988 9.47786 61.6654 10.0129C61.4356 10.548 61.3207 11.2051 61.3207 11.9843C61.3207 12.7636 61.4356 13.4207 61.6654 13.9558C61.8988 14.4908 62.2256 14.8966 62.6458 15.1731C63.0659 15.4496 63.5579 15.5878 64.1216 15.5878C64.6854 15.5878 65.1774 15.4496 65.5975 15.1731C66.0176 14.8966 66.3426 14.4908 66.5724 13.9558C66.8059 13.4207 66.9226 12.7636 66.9226 11.9843Z" fill="black"/>
</svg>