<svg width="12" height="12" viewBox="0 0 12 12" fill="none" xmlns="http://www.w3.org/2000/svg">
<path opacity="0.9" d="M5.27188 9.4625H6.21406V8.80156C6.67344 8.72656 7.05313 8.52969 7.35313 8.21094C7.65313 7.89219 7.80313 7.52187 7.80313 7.1C7.80313 6.67812 7.67188 6.31719 7.40938 6.01719C7.15625 5.71719 6.7625 5.46875 6.22813 5.27187C5.65625 5.06562 5.27656 4.89219 5.08906 4.75156C4.91094 4.60156 4.82188 4.40937 4.82188 4.175C4.82188 3.9875 4.90156 3.83281 5.06094 3.71094C5.22969 3.58906 5.44531 3.52812 5.70781 3.52812C5.97031 3.52812 6.2 3.59375 6.39688 3.725C6.59375 3.84687 6.725 4.01562 6.79063 4.23125L7.62031 3.87969C7.50781 3.57031 7.325 3.3125 7.07188 3.10625C6.82813 2.89062 6.54219 2.75469 6.21406 2.69844V2.0375H5.28594V2.7125C4.86406 2.80625 4.52656 2.98906 4.27344 3.26094C4.02031 3.52344 3.89375 3.83281 3.89375 4.18906C3.89375 4.61094 4.03438 4.97187 4.31563 5.27187C4.60625 5.5625 5.06094 5.81562 5.67969 6.03125C6.10156 6.18125 6.40625 6.34062 6.59375 6.50937C6.79063 6.67812 6.88906 6.875 6.88906 7.1C6.88906 7.34375 6.79063 7.55 6.59375 7.71875C6.39688 7.87812 6.15313 7.95781 5.8625 7.95781C5.55313 7.95781 5.27656 7.85469 5.03281 7.64844C4.79844 7.44219 4.63906 7.175 4.55469 6.84687L3.68281 7.2125C3.79531 7.60625 3.99219 7.94375 4.27344 8.225C4.55469 8.49687 4.8875 8.68437 5.27188 8.7875V9.4625ZM5.75 11.15C5.00938 11.15 4.31094 11.0094 3.65469 10.7281C2.99844 10.4469 2.42188 10.0625 1.925 9.575C1.4375 9.07812 1.05313 8.50156 0.771875 7.84531C0.490625 7.18906 0.35 6.49062 0.35 5.75C0.35 5 0.490625 4.30156 0.771875 3.65469C1.05313 2.99844 1.4375 2.42656 1.925 1.93906C2.42188 1.44219 2.99844 1.05312 3.65469 0.771875C4.31094 0.490625 5.00938 0.35 5.75 0.35C6.5 0.35 7.19844 0.490625 7.84531 0.771875C8.50156 1.05312 9.07344 1.44219 9.56094 1.93906C10.0578 2.42656 10.4469 2.99844 10.7281 3.65469C11.0094 4.30156 11.15 5 11.15 5.75C11.15 6.49062 11.0094 7.18906 10.7281 7.84531C10.4469 8.50156 10.0578 9.07812 9.56094 9.575C9.07344 10.0625 8.50156 10.4469 7.84531 10.7281C7.19844 11.0094 6.5 11.15 5.75 11.15ZM5.75 10.1375C6.96875 10.1375 8.00469 9.71094 8.85781 8.85781C9.71094 8.00469 10.1375 6.96875 10.1375 5.75C10.1375 4.53125 9.71094 3.49531 8.85781 2.64219C8.00469 1.78906 6.96875 1.3625 5.75 1.3625C4.53125 1.3625 3.49531 1.78906 2.64219 2.64219C1.78906 3.49531 1.3625 4.53125 1.3625 5.75C1.3625 6.96875 1.78906 8.00469 2.64219 8.85781C3.49531 9.71094 4.53125 10.1375 5.75 10.1375Z" fill="#7F56D9"/>
</svg>