<svg width="10" height="10" viewBox="0 0 10 10" fill="none" xmlns="http://www.w3.org/2000/svg">
<path opacity="0.9" d="M1.77051 6.5166C2.80762 6.09473 3.80078 5.88379 4.75 5.88379C5.69922 5.88379 6.68359 6.09473 7.70312 6.5166C8.74023 6.9209 9.25879 7.45703 9.25879 8.125V9.25879H0.241211V8.125C0.241211 7.45703 0.750977 6.9209 1.77051 6.5166ZM6.33203 4.09082C5.89258 4.53027 5.36523 4.75 4.75 4.75C4.13477 4.75 3.60742 4.53027 3.16797 4.09082C2.72852 3.65137 2.50879 3.12402 2.50879 2.50879C2.50879 1.89355 2.72852 1.36621 3.16797 0.926758C3.60742 0.469727 4.13477 0.241211 4.75 0.241211C5.36523 0.241211 5.89258 0.469727 6.33203 0.926758C6.77148 1.36621 6.99121 1.89355 6.99121 2.50879C6.99121 3.12402 6.77148 3.65137 6.33203 4.09082Z" fill="#7F56D9"/>
</svg>