<svg width="18" height="10" viewBox="0 0 18 10" fill="none" xmlns="http://www.w3.org/2000/svg">
<path d="M5.4 6.8C4.9 6.8 4.475 6.625 4.125 6.275C3.775 5.925 3.6 5.5 3.6 5C3.6 4.5 3.775 4.075 4.125 3.725C4.475 3.375 4.9 3.2 5.4 3.2C5.9 3.2 6.325 3.375 6.675 3.725C7.025 4.075 7.2 4.5 7.2 5C7.2 5.5 7.025 5.925 6.675 6.275C6.325 6.625 5.9 6.8 5.4 6.8ZM5.4 9.5C4.15 9.5 3.0875 9.0625 2.2125 8.1875C1.3375 7.3125 0.9 6.25 0.9 5C0.9 3.75 1.3375 2.6875 2.2125 1.8125C3.0875 0.937499 4.15 0.499999 5.4 0.499999C6.2125 0.499999 6.9625 0.706249 7.65 1.11875C8.3375 1.51875 8.8875 2.0625 9.3 2.75H15.75L18 5L14.625 8.15L13.05 7.025L11.7 8.15L9.9 6.8H9.525C9.225 7.65 8.6875 8.3125 7.9125 8.7875C7.15 9.2625 6.3125 9.5 5.4 9.5ZM5.4 8.15C6.1875 8.15 6.88125 7.9 7.48125 7.4C8.08125 6.8875 8.425 6.2375 8.5125 5.45H10.35L11.6625 6.425L12.9938 5.31875L14.5125 6.40625L16.05 4.98125L15.1875 4.1H8.41875C8.18125 3.4375 7.7875 2.9 7.2375 2.4875C6.7 2.0625 6.0875 1.85 5.4 1.85C4.525 1.85 3.78125 2.15625 3.16875 2.76875C2.55625 3.38125 2.25 4.125 2.25 5C2.25 5.875 2.55625 6.61875 3.16875 7.23125C3.78125 7.84375 4.525 8.15 5.4 8.15Z" fill="#171721"/>
</svg>