<svg width="50" height="51" viewBox="0 0 50 51" fill="none" xmlns="http://www.w3.org/2000/svg">
<rect y="0.5" width="50" height="50" rx="25" fill="#7F56D9"/>
<path opacity="0.5" d="M36.9141 37.4141C36.9141 34.2849 36.2977 31.1864 35.1003 28.2954C33.9028 25.4045 32.1476 22.7777 29.935 20.565C27.7223 18.3524 25.0955 16.5972 22.2046 15.3997C19.3136 14.2023 16.2151 13.5859 13.0859 13.5859L13.0859 37.4141H36.9141Z" fill="#FCFCFD"/>
<path opacity="0.5" d="M36.9141 13.5859C36.9141 16.7151 36.2977 19.8136 35.1003 22.7046C33.9028 25.5955 32.1476 28.2223 29.935 30.435C27.7223 32.6476 25.0955 34.4028 22.2046 35.6003C19.3136 36.7977 16.2151 37.4141 13.0859 37.4141L13.0859 13.5859H36.9141Z" fill="#FCFCFD"/>
</svg>
