<svg width="12" height="12" viewBox="0 0 12 12" fill="none" xmlns="http://www.w3.org/2000/svg">
<path d="M6 6C5.25 6 4.6125 5.7375 4.0875 5.2125C3.5625 4.6875 3.3 4.05 3.3 3.3C3.3 2.55 3.5625 1.9125 4.0875 1.3875C4.6125 0.862499 5.25 0.599999 6 0.599999C6.75 0.599999 7.3875 0.862499 7.9125 1.3875C8.4375 1.9125 8.7 2.55 8.7 3.3C8.7 4.05 8.4375 4.6875 7.9125 5.2125C7.3875 5.7375 6.75 6 6 6ZM0.6 11.4V9.6C0.6 9.3125 0.675 9.04375 0.825 8.79375C0.9875 8.53125 1.20625 8.3125 1.48125 8.1375C2.16875 7.7375 2.89375 7.43125 3.65625 7.21875C4.43125 7.00625 5.2125 6.9 6 6.9C6.7875 6.9 7.5625 7.00625 8.325 7.21875C9.1 7.43125 9.83125 7.7375 10.5188 8.1375C10.7938 8.3 11.0063 8.5125 11.1563 8.775C11.3188 9.0375 11.4 9.3125 11.4 9.6V11.4H0.6ZM1.95 10.05H10.05V9.6C10.05 9.5375 10.0313 9.48125 9.99375 9.43125C9.95625 9.36875 9.90625 9.325 9.84375 9.3C9.26875 8.95 8.65625 8.6875 8.00625 8.5125C7.35625 8.3375 6.6875 8.25 6 8.25C5.3125 8.25 4.64375 8.3375 3.99375 8.5125C3.34375 8.6875 2.73125 8.95 2.15625 9.3C2.09375 9.35 2.04375 9.4 2.00625 9.45C1.96875 9.4875 1.95 9.5375 1.95 9.6V10.05ZM6 4.65C6.375 4.65 6.69375 4.51875 6.95625 4.25625C7.21875 3.99375 7.35 3.675 7.35 3.3C7.35 2.925 7.21875 2.60625 6.95625 2.34375C6.69375 2.08125 6.375 1.95 6 1.95C5.625 1.95 5.30625 2.08125 5.04375 2.34375C4.78125 2.60625 4.65 2.925 4.65 3.3C4.65 3.675 4.78125 3.99375 5.04375 4.25625C5.30625 4.51875 5.625 4.65 6 4.65Z" fill="#171721"/>
</svg>