<svg width="18" height="14" viewBox="0 0 18 14" fill="none" xmlns="http://www.w3.org/2000/svg">
<path d="M4 13.1667C3.11111 13.1667 2.36111 12.8611 1.75 12.25C1.13889 11.6389 0.833333 10.8889 0.833333 10V4C0.833333 3.11111 1.13889 2.36111 1.75 1.75C2.36111 1.13889 3.11111 0.833332 4 0.833332H14C14.8889 0.833332 15.6389 1.13889 16.25 1.75C16.8611 2.36111 17.1667 3.11111 17.1667 4V10C17.1667 10.8889 16.8611 11.6389 16.25 12.25C15.6389 12.8611 14.8889 13.1667 14 13.1667H4ZM4.16667 3.9375H13.875C14.1389 3.9375 14.4028 3.97917 14.6667 4.0625C14.9306 4.13194 15.1875 4.22917 15.4375 4.35417V4C15.4375 3.59722 15.2986 3.25694 15.0208 2.97917C14.7431 2.70139 14.4028 2.5625 14 2.5625H4C3.59722 2.5625 3.25694 2.70139 2.97917 2.97917C2.70139 3.25694 2.5625 3.59722 2.5625 4V4.375C2.8125 4.23611 3.06944 4.13194 3.33333 4.0625C3.59722 3.97917 3.875 3.9375 4.16667 3.9375ZM2.875 6.41667L11.5833 8.54167C11.7083 8.58333 11.8333 8.59028 11.9583 8.5625C12.0972 8.52083 12.2153 8.45833 12.3125 8.375L14.9792 6.16667C14.8264 6.01389 14.6528 5.89583 14.4583 5.8125C14.2778 5.71528 14.0833 5.66667 13.875 5.66667H4.16667C3.90278 5.66667 3.64583 5.74305 3.39583 5.89583C3.14583 6.03472 2.97222 6.20833 2.875 6.41667Z" fill="#7F56D9"/>
</svg>