<svg width="17" height="18" viewBox="0 0 17 18" fill="none" xmlns="http://www.w3.org/2000/svg">
<path d="M6.58203 17.1667L6.1237 14.75C5.81814 14.625 5.52648 14.4861 5.2487 14.3333C4.98481 14.1806 4.72787 14 4.47786 13.7917L2.14453 14.6042L0.373698 11.5625L2.22786 9.9375C2.21398 9.78472 2.20009 9.63194 2.1862 9.47917C2.17231 9.32639 2.16536 9.16667 2.16536 9C2.16536 8.83333 2.17231 8.67361 2.1862 8.52083C2.20009 8.36805 2.21398 8.21528 2.22786 8.0625L0.373698 6.4375L2.14453 3.41667L4.4987 4.20833C4.73481 4 4.98481 3.81944 5.2487 3.66667C5.52648 3.51389 5.81814 3.38194 6.1237 3.27083L6.58203 0.833333H10.082L10.5404 3.27083C10.8459 3.38194 11.1306 3.51389 11.3945 3.66667C11.6723 3.81944 11.9362 4 12.1862 4.20833L14.5195 3.41667L16.2904 6.4375L14.4154 8.0625C14.4431 8.21528 14.464 8.36805 14.4779 8.52083C14.4918 8.67361 14.4987 8.83333 14.4987 9C14.4987 9.16667 14.4918 9.32639 14.4779 9.47917C14.464 9.63194 14.4431 9.78472 14.4154 9.9375L16.2904 11.5625L14.5195 14.6042L12.1654 13.7917C11.9293 14 11.6723 14.1806 11.3945 14.3333C11.1306 14.4861 10.8459 14.625 10.5404 14.75L10.082 17.1667H6.58203ZM8.01953 15.4375H8.64453L9.04037 13.3958C9.58203 13.2986 10.082 13.1181 10.5404 12.8542C11.0126 12.5764 11.4154 12.2292 11.7487 11.8125L13.7487 12.4792L14.0612 11.9583L12.4779 10.5625C12.5612 10.3264 12.6306 10.0764 12.6862 9.8125C12.7418 9.54861 12.7695 9.27778 12.7695 9C12.7695 8.72222 12.7418 8.45139 12.6862 8.1875C12.6306 7.92361 12.5612 7.67361 12.4779 7.4375L14.0612 6.04167L13.7487 5.52083L11.7487 6.1875C11.4154 5.77083 11.0126 5.43055 10.5404 5.16667C10.082 4.88889 9.58203 4.70139 9.04037 4.60417L8.64453 2.5625H7.9987L7.6237 4.60417C7.08203 4.70139 6.57509 4.88889 6.10287 5.16667C5.64453 5.43055 5.24175 5.77083 4.89453 6.1875L2.91536 5.52083L2.60286 6.04167L4.16536 7.4375C4.08203 7.67361 4.01259 7.92361 3.95703 8.1875C3.90148 8.45139 3.8737 8.72222 3.8737 9C3.8737 9.27778 3.90148 9.54861 3.95703 9.8125C4.01259 10.0764 4.08203 10.3333 4.16536 10.5833L2.60286 11.9583L2.91536 12.4792L4.89453 11.8333C5.24175 12.2361 5.64453 12.5764 6.10287 12.8542C6.57509 13.1181 7.08203 13.2986 7.6237 13.3958L8.01953 15.4375ZM8.3112 12C9.14453 12 9.85286 11.7083 10.4362 11.125C11.0195 10.5417 11.3112 9.83333 11.3112 9C11.3112 8.16667 11.0195 7.45833 10.4362 6.875C9.85286 6.29167 9.14453 6 8.3112 6C7.49175 6 6.78342 6.29167 6.1862 6.875C5.60286 7.45833 5.3112 8.16667 5.3112 9C5.3112 9.83333 5.60286 10.5417 6.1862 11.125C6.78342 11.7083 7.49175 12 8.3112 12Z" fill="#7F56D9"/>
</svg>