<svg width="15" height="16" viewBox="0 0 15 16" xmlns="http://www.w3.org/2000/svg">
<path d="M3.22852 7.5V3.5625H7.16602V7.5H3.22852ZM3.22852 12.4375V8.5H7.16602V12.4375H3.22852ZM8.16602 7.5V3.5625H12.1035V7.5H8.16602ZM8.16602 12.4375V8.5H12.1035V12.4375H8.16602ZM4.72852 6H5.66602V5.0625H4.72852V6ZM9.66602 6H10.6035V5.0625H9.66602V6ZM4.72852 10.9375H5.66602V10H4.72852V10.9375ZM9.66602 10.9375H10.6035V10H9.66602V10.9375ZM2.22852 15.1667C1.7424 15.1667 1.33268 15 0.999349 14.6667C0.666016 14.3333 0.499349 13.9236 0.499349 13.4375V2.5625C0.499349 2.07639 0.666016 1.66667 0.999349 1.33333C1.33268 1 1.7424 0.833333 2.22852 0.833333H13.1035C13.5896 0.833333 13.9994 1 14.3327 1.33333C14.666 1.66667 14.8327 2.07639 14.8327 2.5625V13.4375C14.8327 13.9236 14.666 14.3333 14.3327 14.6667C13.9994 15 13.5896 15.1667 13.1035 15.1667H2.22852ZM2.22852 13.4375H13.1035V2.5625H2.22852V13.4375Z"/>
</svg>