<svg width="18" height="18" viewBox="0 0 18 18" xmlns="http://www.w3.org/2000/svg">
<g clip-path="url(#clip0_4400_22146)">
<path d="M4 15.1667C3.11111 15.1667 2.36111 14.8611 1.75 14.25C1.13889 13.6389 0.833333 12.8889 0.833333 12V6C0.833333 5.11111 1.13889 4.36111 1.75 3.75C2.36111 3.13889 3.11111 2.83333 4 2.83333H14C14.8889 2.83333 15.6389 3.13889 16.25 3.75C16.8611 4.36111 17.1667 5.11111 17.1667 6V12C17.1667 12.8889 16.8611 13.6389 16.25 14.25C15.6389 14.8611 14.8889 15.1667 14 15.1667H4ZM4.16667 5.9375H13.875C14.1389 5.9375 14.4028 5.97917 14.6667 6.0625C14.9306 6.13194 15.1875 6.22917 15.4375 6.35417V6C15.4375 5.59722 15.2986 5.25694 15.0208 4.97917C14.7431 4.70139 14.4028 4.5625 14 4.5625H4C3.59722 4.5625 3.25694 4.70139 2.97917 4.97917C2.70139 5.25694 2.5625 5.59722 2.5625 6V6.375C2.8125 6.23611 3.06944 6.13194 3.33333 6.0625C3.59722 5.97917 3.875 5.9375 4.16667 5.9375ZM2.875 8.41667L11.5833 10.5417C11.7083 10.5833 11.8333 10.5903 11.9583 10.5625C12.0972 10.5208 12.2153 10.4583 12.3125 10.375L14.9792 8.16667C14.8264 8.01389 14.6528 7.89583 14.4583 7.8125C14.2778 7.71528 14.0833 7.66667 13.875 7.66667H4.16667C3.90278 7.66667 3.64583 7.74305 3.39583 7.89583C3.14583 8.03472 2.97222 8.20833 2.875 8.41667Z"/>
</g>
<defs>
<clipPath id="clip0_4400_22146">
<rect width="18" height="18" fill="white"/>
</clipPath>
</defs>
</svg>